<svg width="26" height="25" viewBox="0 0 26 25" fill="none" xmlns="http://www.w3.org/2000/svg">
<path d="M17.401 25C16.7978 25.0008 16.2079 24.8226 15.706 24.4881C15.204 24.1535 14.8126 23.6776 14.5812 23.1206C14.3499 22.5635 14.2889 21.9503 14.4061 21.3586C14.5233 20.7669 14.8134 20.2233 15.2396 19.7964C15.6659 19.3696 16.2091 19.0789 16.8007 18.9609C17.3923 18.8429 18.0055 18.9031 18.5629 19.1337C19.1202 19.3644 19.5967 19.7552 19.9319 20.2567C20.2671 20.7581 20.446 21.3478 20.446 21.951C20.4457 22.7589 20.125 23.5336 19.5541 24.1053C18.9832 24.6769 18.2089 24.9987 17.401 25ZM17.401 20.731C17.1596 20.7306 16.9235 20.8018 16.7226 20.9357C16.5216 21.0696 16.365 21.26 16.2723 21.483C16.1797 21.7059 16.1553 21.9513 16.2023 22.1882C16.2492 22.425 16.3653 22.6425 16.536 22.8133C16.7066 22.9841 16.9241 23.1004 17.1609 23.1475C17.3976 23.1947 17.6431 23.1705 17.8661 23.078C18.0891 22.9856 18.2797 22.8291 18.4137 22.6283C18.5478 22.4275 18.6192 22.1914 18.619 21.95C18.6206 21.7896 18.5902 21.6305 18.5296 21.482C18.4689 21.3335 18.3793 21.1986 18.2658 21.0852C18.1524 20.9717 18.0175 20.8821 17.869 20.8214C17.7205 20.7608 17.5614 20.7304 17.401 20.732V20.731ZM8.875 25C8.2718 25.0008 7.68191 24.8226 7.17998 24.4881C6.67805 24.1535 6.28663 23.6776 6.05524 23.1206C5.82386 22.5635 5.76291 21.9503 5.8801 21.3586C5.99729 20.7669 6.28737 20.2233 6.71362 19.7964C7.13987 19.3696 7.68314 19.0789 8.2747 18.9609C8.86625 18.8429 9.47951 18.9031 10.0369 19.1337C10.5942 19.3644 11.0707 19.7552 11.4059 20.2567C11.7411 20.7581 11.92 21.3478 11.92 21.951C11.9197 22.7589 11.599 23.5336 11.0281 24.1053C10.4572 24.6769 9.68287 24.9987 8.875 25ZM8.875 20.731C8.63358 20.7306 8.39747 20.8018 8.19656 20.9357C7.99564 21.0696 7.83896 21.26 7.74635 21.483C7.65373 21.7059 7.62934 21.9513 7.67627 22.1882C7.7232 22.425 7.83934 22.6425 8.00998 22.8133C8.18062 22.9841 8.39809 23.1004 8.63487 23.1475C8.87164 23.1947 9.11708 23.1705 9.3401 23.078C9.56313 22.9856 9.75372 22.8291 9.88774 22.6283C10.0218 22.4275 10.0932 22.1914 10.093 21.95C10.0946 21.7896 10.0642 21.6305 10.0036 21.482C9.94291 21.3335 9.85325 21.1986 9.73983 21.0852C9.62641 20.9717 9.4915 20.8821 9.343 20.8214C9.1945 20.7608 9.0354 20.7304 8.875 20.732V20.731ZM20.759 17.683H5.52C5.097 17.683 4.708 17.264 4.574 16.663L1.434 1.83H-2.085C-2.32767 1.83 -2.56041 1.7336 -2.732 1.562C-2.9036 1.39041 -3 1.15767 -3 0.915C-3 0.672327 -2.9036 0.439593 -2.732 0.267997C-2.56041 0.0964015 -2.32767 3.61611e-09 -2.085 0L2.177 0C2.3852 0.00502514 2.58586 0.0789008 2.74761 0.210076C2.90936 0.341251 3.02309 0.52233 3.071 0.725L3.566 3.05H24.101C24.2355 3.05431 24.3672 3.08871 24.4866 3.15066C24.6061 3.21262 24.7101 3.30055 24.791 3.408C24.8773 3.51183 24.9395 3.63345 24.9732 3.76416C25.0069 3.89486 25.0113 4.03141 24.986 4.164L22.851 13.31C22.801 13.509 22.6876 13.6864 22.528 13.8154C22.3684 13.9444 22.1711 14.0179 21.966 14.025H5.878L6.268 15.854H20.759C21.0017 15.854 21.2344 15.9504 21.406 16.122C21.5776 16.2936 21.674 16.5263 21.674 16.769C21.674 17.0117 21.5776 17.2444 21.406 17.416C21.2344 17.5876 21.0017 17.684 20.759 17.684V17.683ZM3.946 4.878L5.501 12.195H21.243L22.943 4.878H3.943H3.946Z" fill="#FEBD17"/>
</svg>
