<svg width="158" height="38" viewBox="0 0 158 38" fill="none" xmlns="http://www.w3.org/2000/svg">
<path d="M157.88 38H0.027V35.021H157.88V38ZM96.745 33.467H85.527L95.018 4.467H107.085L116.333 33.467H105.587L104.487 29.053H97.748L96.748 33.467H96.745ZM101.161 14.159L99.246 22.6H102.99L101.162 14.157L101.161 14.159ZM64.012 33.467H54.059L46.045 4.467H56.768L59.7 18.627L62.758 4.469H72.248L75.5 18.627L78.5 4.469H89.226L80.991 33.469H70.791L67.36 19.318L64.012 33.466V33.467ZM151.467 33.467H140.467V12.407H133.993V4.207H157.963V12.407H151.463V33.465L151.467 33.467ZM137.484 33.467H117.512V4.207H128.495V24.826H137.484V33.466V33.467ZM46.231 33.467H30.239V10.677H46.231V16.646H38.491V19.121H45.229V25.089H38.491V27.564H46.231V33.464V33.467ZM13.586 33.467H0V4.467H13.638C17.856 4.467 21.405 5.667 23.902 7.925C25.2675 9.17435 26.3242 10.7237 26.989 12.451C27.7737 14.5519 28.1563 16.7817 28.117 19.024C28.1542 21.2204 27.7812 23.4045 27.017 25.464C26.3626 27.1787 25.3204 28.7189 23.972 29.964C21.467 32.256 17.876 33.466 13.586 33.466V33.467ZM10.393 12.8V24.782H11.255C12.7555 24.8988 14.2447 24.4441 15.424 23.509C16.485 22.546 17 21.049 17 18.932C17 16.627 16.488 15.032 15.435 14.053C14.262 13.1151 12.7717 12.6671 11.276 12.803L10.393 12.8ZM155.379 33.255C154.911 33.2475 154.456 33.102 154.07 32.8367C153.685 32.5713 153.386 32.198 153.212 31.7636C153.038 31.3292 152.995 30.853 153.091 30.3948C153.186 29.9366 153.415 29.5168 153.748 29.188C154.081 28.8593 154.504 28.6363 154.964 28.547C155.423 28.4577 155.899 28.506 156.331 28.686C156.763 28.866 157.132 29.1696 157.392 29.5586C157.652 29.9477 157.792 30.405 157.793 30.873C157.793 31.1886 157.731 31.5011 157.609 31.7923C157.488 32.0836 157.309 32.3477 157.085 32.5693C156.86 32.791 156.594 32.9658 156.301 33.0835C156.008 33.2012 155.695 33.2595 155.379 33.255ZM155.379 28.9C154.985 28.8907 154.598 28.999 154.266 29.2111C153.934 29.4232 153.673 29.7295 153.516 30.0908C153.359 30.4521 153.313 30.8519 153.385 31.2392C153.457 31.6266 153.642 31.9837 153.918 32.2651C154.193 32.5465 154.547 32.7392 154.932 32.8187C155.318 32.8982 155.719 32.8608 156.083 32.7114C156.448 32.5619 156.759 32.3071 156.978 31.9797C157.197 31.6522 157.313 31.2669 157.312 30.873C157.32 30.6152 157.275 30.3585 157.181 30.1183C157.087 29.8781 156.946 29.6593 156.765 29.475C156.585 29.2908 156.369 29.1449 156.131 29.0461C155.893 28.9473 155.637 28.8976 155.379 28.9ZM154.913 32.057H154.456V29.614H155.508C156.121 29.614 156.502 29.893 156.502 30.342C156.511 30.4405 156.5 30.5398 156.47 30.634C156.439 30.7281 156.39 30.8152 156.326 30.8899C156.261 30.9646 156.181 31.0255 156.092 31.0688C156.004 31.1121 155.907 31.137 155.808 31.142L156.42 32.052H155.825L155.304 31.177H154.914V32.052L154.913 32.057ZM154.913 29.988V30.772H155.476C155.621 30.7836 155.768 30.7655 155.906 30.719C155.967 30.6848 156.016 30.6327 156.047 30.5698C156.077 30.5069 156.088 30.4361 156.077 30.367C156.077 30.017 155.765 29.988 155.445 29.988H154.913ZM158 2.978H0.027V0H158V2.977V2.978Z" fill="black"/>
</svg>
