<svg width="15" height="15" viewBox="0 0 15 15" fill="none" xmlns="http://www.w3.org/2000/svg">
<g clip-path="url(#clip0_28_397)">
<path d="M0.45672 7.07108C0.456406 6.92622 0.484706 6.78273 0.539995 6.64884C0.595283 6.51496 0.676472 6.39331 0.7789 6.29088C0.881328 6.18845 1.00298 6.10726 1.13687 6.05197C1.27075 5.99668 1.41424 5.96839 1.5591 5.9687L12.5829 5.9687C12.7277 5.9687 12.871 5.99721 13.0048 6.05261C13.1385 6.10801 13.26 6.18921 13.3624 6.29158C13.4648 6.39394 13.546 6.51547 13.6014 6.64922C13.6568 6.78296 13.6853 6.92631 13.6853 7.07108C13.6853 7.21584 13.6568 7.35919 13.6014 7.49294C13.546 7.62669 13.4648 7.74821 13.3624 7.85058C13.26 7.95294 13.1385 8.03414 13.0048 8.08954C12.871 8.14494 12.7277 8.17346 12.5829 8.17346L1.5591 8.17346C1.41424 8.17377 1.27075 8.14547 1.13687 8.09018C1.00298 8.03489 0.881328 7.95371 0.7789 7.85128C0.676472 7.74885 0.595283 7.6272 0.539995 7.49331C0.484706 7.35942 0.456406 7.21593 0.45672 7.07108V7.07108Z" fill="#464646"/>
</g>
<defs>
<clipPath id="clip0_28_397">
<rect width="14.142" height="14.142" fill="white"/>
</clipPath>
</defs>
</svg>
