<svg width="15" height="18" viewBox="0 0 15 18" fill="none" xmlns="http://www.w3.org/2000/svg">
<path d="M12.959 5.39795V15.115C12.959 16.3084 11.9929 17.2745 10.7994 17.2745H3.24018C2.04671 17.2745 1.08065 16.3084 1.08065 15.115V5.39795C0.484794 5.39795 0 4.91492 0 4.31907V3.23842C0 2.64256 0.483031 2.15953 1.08065 2.15953H4.31907V1.07889C4.31907 0.48303 4.8021 0 5.39796 0H8.63638C9.23223 0 9.71703 0.48303 9.71703 1.07889V2.15777H12.9572C13.5531 2.15777 14.0361 2.6408 14.0361 3.23666V4.31907C14.0379 4.91492 13.5548 5.39795 12.959 5.39795ZM1.90392 5.39795V15.3935C1.90392 15.9894 2.36756 16.4742 2.96341 16.4742H11.0762C11.6721 16.4742 12.1569 15.9911 12.1569 15.3935V5.39795C11.5487 5.39795 2.64609 5.39795 1.90392 5.39795ZM5.12295 2.15953V1.34156C5.12295 1.04363 5.36446 0.802112 5.66239 0.802112H8.37723C8.67516 0.802112 8.91668 1.04363 8.91668 1.34156V2.15777C8.3931 2.15953 5.12295 2.15953 5.12295 2.15953ZM12.6963 2.96341H1.34332C1.04539 2.96341 0.803876 3.42 0.803876 3.77786C0.803876 4.13573 1.04539 4.59231 1.34332 4.59231H12.6963C12.9942 4.59231 13.2357 4.13573 13.2357 3.77786C13.2357 3.42 12.9942 2.96341 12.6963 2.96341ZM4.92021 7.55749C5.14234 7.55749 5.32215 7.799 5.32215 8.09693V14.5755C5.32215 14.8735 5.14234 15.115 4.92021 15.115C4.69809 15.115 4.51828 14.8735 4.51828 14.5755V8.09869C4.51828 7.80076 4.69809 7.55749 4.92021 7.55749ZM7.07799 7.55749C7.30011 7.55749 7.47816 7.799 7.47816 8.09693V14.5755C7.47816 14.8735 7.29835 15.115 7.07799 15.115C6.85762 15.115 6.67781 14.8735 6.67781 14.5755V8.09869C6.67781 7.80076 6.85762 7.55749 7.07799 7.55749ZM9.23752 7.55749C9.45788 7.55749 9.6377 7.799 9.6377 8.09693V14.5755C9.6377 14.8735 9.45788 15.115 9.23752 15.115C9.01716 15.115 8.83735 14.8735 8.83735 14.5755V8.09869C8.83735 7.80076 9.01716 7.55749 9.23752 7.55749Z" fill="#FEBD17"/>
</svg>
